<?xml version="1.0" encoding="UTF-8"?>
<svg id="Calque_2" data-name="Calque 2" xmlns="http://www.w3.org/2000/svg" viewBox="0 0 260.74 213.84">
  <g id="header">
    <g>
      <g>
        <path d="m76.12,193.04l-7.26,7.05,17.46.82-.48,10.27-37.03-1.85.27-5.61,18.21-17.73c3.29-3.15,6.16-6.02,6.16-10.13,0-3.08-2.19-5.68-5.82-5.68-4.18,0-6.3,3.15-7.8,6.37l-10.13-4.18c1.85-5.13,7.6-11.98,18.34-11.98,11.64,0,18.62,6.98,18.62,15.13,0,6.78-4.31,11.36-10.54,17.52Z"/>
        <path d="m91.93,185.44c0-4.79.75-8.97,2.26-12.46,2.67-6.09,7.74-9.99,15.06-10.54.55-.07,1.1-.07,1.64-.07,6.5,0,11.43,3.08,14.79,8.28,2.53,4.04,3.97,9.38,4.45,15.74.07,1.23.14,2.46.14,3.63,0,4.79-.68,8.97-2.26,12.53-2.74,6.09-7.73,9.93-15.06,10.47-.55.07-1.1.07-1.64.07-6.5,0-11.5-3.01-14.79-8.28-2.53-4.04-3.97-9.31-4.45-15.61-.07-1.44-.14-2.6-.14-3.77Zm14.72,13.62c1.16,2.94,2.88,4.31,5.27,4.31h.34c2.6-.21,4.11-1.85,4.79-5.07.34-1.51.48-3.35.48-5.48,0-1.64-.07-3.49-.21-5.54-.34-4.65-.89-8.28-1.85-10.88-1.1-2.87-2.67-4.24-5-4.24h-.48c-2.6.21-4.24,1.78-4.93,5-.27,1.51-.41,3.35-.41,5.48,0,1.64.07,3.56.21,5.61.34,4.65.82,8.21,1.78,10.82Z"/>
        <path d="m143.34,179.55l-10.68-2.19c1.1-6.37,7.6-15.74,20.54-15.74,8.35,0,16.63,5.41,16.63,14.72,0,5.54-3.35,10.47-6.64,15.33l-6.37,9.24,17.25-2.46,1.44,10.2-36.76,5.2-.75-5.54,14.51-20.88c2.33-3.35,4.24-6.43,4.24-9.65s-2.12-6.02-5.82-6.02c-4.11,0-6.3,3.49-7.6,7.8Z"/>
        <path d="m214.94,195.64c0,10.06-9.45,16.77-19.65,16.77-8.9,0-15.61-4.24-17.93-11.16l10.34-4.72c1.16,4.04,4.38,6.09,7.6,6.09,3.97,0,6.5-2.46,6.5-6.43,0-5.34-5.2-7.39-10.27-7.39-1.58,0-3.15.14-4.79.21l-.55-.82,7.74-15.33-16.98,1.23-.75-10.27,35.59-2.53.07,1.03-10.54,19.3c7.39.89,13.62,6.02,13.62,14.03Z"/>
      </g>
      <g>
        <path d="m37.23,51.61c-8.62,0-16.91-4.45-22.93-11.23l7.8-7.53c3.42,3.7,8.69,8.28,14.31,8.28,2.12,0,4.38-.82,4.38-3.35,0-1.37-.89-2.88-3.08-4.11-1.44-.89-2.88-1.64-4.52-2.53l-3.01-1.71c-5.75-3.29-9.93-6.64-9.93-13.35C20.26,7.26,27.1.62,37.3.62c7.26,0,14.51,3.15,19.71,9.24l-7.8,7.8c-3.01-3.15-7.46-6.91-12.25-6.91-1.98,0-4.38,1.16-4.38,3.49,0,1.16.82,2.74,2.94,3.97,1.71,1.03,3.42,1.92,5.34,3.01l3.35,1.85c5.54,3.08,10.06,6.84,10.06,13.07,0,8.97-7.19,15.47-17.04,15.47Z"/>
        <path d="m124.37,0l-8.21,49.7-13.07.89-10.2-29.91-5.96,31.01-13.14.89L59.07,4.31l13.01-.82,8.42,30.46,5.82-31.42,11.02-.75,9.79,30.6L111.64.82l12.73-.82Z"/>
        <path d="m128.41,53.12l2.19-49.08,12.66.62-2.19,49.01-12.66-.55Z"/>
        <path d="m168.46,52.71c-9.86,0-16.7-4.72-19.51-6.98l6.23-8.9c3.83,2.81,8.83,5.48,13.62,5.48,4.18,0,5.82-1.92,5.82-4.04,0-1.78-1.16-3.29-3.76-4.18-1.64-.62-3.22-1.1-4.93-1.64l-3.35-1.1c-7.05-2.4-12.6-4.93-12.6-13.96,0-7.87,5.89-15.33,18.28-15.33,7.53,0,13.28,2.46,16.77,5.54l-6.09,9.1c-3.83-2.67-7.53-4.38-11.36-4.38s-5.48,1.78-5.48,3.76c0,1.51.68,2.94,3.56,4.04,1.92.75,3.7,1.23,5.75,1.92l3.49,1.1c6.78,2.26,12.46,5.41,12.46,13.76,0,9.24-7.26,15.81-18.89,15.81Z"/>
        <path d="m212.13,51.61c-8.62,0-16.91-4.45-22.93-11.23l7.8-7.53c3.42,3.7,8.69,8.28,14.31,8.28,2.12,0,4.38-.82,4.38-3.35,0-1.37-.89-2.88-3.08-4.11-1.44-.89-2.88-1.64-4.52-2.53l-3.01-1.71c-5.75-3.29-9.93-6.64-9.93-13.35,0-8.83,6.85-15.47,17.04-15.47,7.26,0,14.51,3.15,19.71,9.24l-7.8,7.8c-3.01-3.15-7.46-6.91-12.25-6.91-1.99,0-4.38,1.16-4.38,3.49,0,1.16.82,2.74,2.94,3.97,1.71,1.03,3.42,1.92,5.34,3.01l3.35,1.85c5.54,3.08,10.06,6.84,10.06,13.07,0,8.97-7.19,15.47-17.04,15.47Z"/>
      </g>
      <g>
        <path d="m33.4,102.7c-3.29,1.64-7.19,2.6-11.77,2.6-.75,0-1.57,0-2.4-.07l-19.23-1.37,3.56-49.01,18.69,1.37c6.23.48,11.02,2.26,14.58,4.65,6.91,4.65,9.65,12.39,9.65,19.71,0,.68,0,1.37-.07,2.05-.62,8.28-5.13,16.15-13.01,20.06Zm-.41-23c0-5-1.44-8.42-3.7-10.54-2.12-2.12-4.86-3.08-7.8-3.29l-5.96-.48-2.19,29.71,6.02.48c.34,0,.68.07,1.03.07,2.6,0,5.07-.75,7.19-2.33,2.81-2.19,4.93-6.02,5.34-11.71.07-.68.07-1.3.07-1.92Z"/>
        <path d="m90.43,105.64l-34.57,3.7-5.13-48.81,33.95-3.63,1.1,10.27-21.29,2.19.96,9.17,18.82-2.05,1.03,10.2-18.82,2.05.96,9.04,21.9-2.33,1.1,10.2Z"/>
        <path d="m114.66,104.61c-8.62,0-16.91-4.45-22.93-11.23l7.8-7.53c3.42,3.7,8.69,8.28,14.31,8.28,2.12,0,4.38-.82,4.38-3.35,0-1.37-.89-2.88-3.08-4.11-1.44-.89-2.88-1.64-4.52-2.53l-3.01-1.71c-5.75-3.29-9.93-6.64-9.93-13.35,0-8.83,6.85-15.47,17.04-15.47,7.26,0,14.51,3.15,19.71,9.24l-7.8,7.8c-3.01-3.15-7.46-6.91-12.25-6.91-1.98,0-4.38,1.16-4.38,3.49,0,1.16.82,2.74,2.94,3.97,1.71,1.03,3.42,1.92,5.34,3.01l3.35,1.85c5.54,3.08,10.06,6.84,10.06,13.07,0,8.97-7.19,15.47-17.04,15.47Z"/>
        <path d="m139.58,102.35l-1.71-49.15,12.66-.41,1.71,49.08-12.66.48Z"/>
        <path d="m183.66,105.43c-.82,0-1.71-.07-2.6-.14-13.76-1.23-23-10.82-23-24.64,0-.96.07-1.92.14-2.88,1.23-14.37,11.98-23.14,24.64-23.14.75,0,1.51,0,2.33.07,8.97.82,17.18,5.54,19.92,14.03l-11.43,3.97c-1.23-3.42-4.72-6.91-9.17-7.32-.27,0-.55-.07-.82-.07-5.61,0-11.02,4.59-11.77,13.69-.07.75-.14,1.51-.14,2.19,0,8.28,4.79,13.01,10.88,13.48.34,0,.75.07,1.09.07,4.59,0,8.01-2.88,9.38-6.5l-8.49-.68.75-9.17,22.18,1.92c0,.48.07,1.03.07,1.51,0,.68-.07,1.44-.14,2.05-1.1,12.32-10.68,21.56-23.82,21.56Z"/>
        <path d="m248.21,103.24l-22.52-28.13,3.63,30.46-11.71,1.37-5.89-48.67,13.42-1.64,21.49,27.65-3.56-29.84,11.77-1.37,5.89,48.67-12.53,1.51Z"/>
      </g>
      <g>
        <path d="m68.31,119.64l-.27,11.84,18.96.27-.21,10.27-18.96-.27-.27,16.7-12.73-.34,1.1-49.01,33.68.75-.21,10.27-21.08-.48Z"/>
        <path d="m121.7,150.44l-17.66,1.23-3.01,11.16-12.94.96,14.58-50.24,15.81-1.1,21.49,47.71-13.76.96-4.52-10.68Zm-15.13-8.15l11.36-.82-6.78-16.5-4.59,17.32Z"/>
        <path d="m143.95,161.12l2.19-49.08,12.66.62-2.19,49.01-12.66-.55Z"/>
        <path d="m183.86,140.51l-4.38.34,1.16,16.57-12.66.89-3.42-48.94,17.45-1.3c4.11-.27,4.72-.27,5.34-.27,10.88,0,17.25,7.12,17.25,15.33,0,6.09-3.7,11.57-8.56,14.17l14.58,18-14.72,1.03-12.05-15.81Zm1.23-9.79c4.59-.34,6.3-3.42,6.3-6.78s-2.05-6.37-6.16-6.37c-1.99,0-5.48.34-7.32.48l.96,13.14,6.23-.48Z"/>
      </g>
    </g>
  </g>
</svg>