<?xml version="1.0" encoding="UTF-8"?>
<svg id="Calque_2" data-name="Calque 2" xmlns="http://www.w3.org/2000/svg" viewBox="0 0 62.75 62.75">
  <defs>
    <style>
      .cls-1 {
        fill: none;
        stroke: #000;
        stroke-miterlimit: 10;
        stroke-width: .75px;
      }
    </style>
  </defs>
  <g id="header">
    <g>
      <g>
        <g>
          <path d="m21.24,49.74l-1.35,1.31,3.25.15-.09,1.91-6.88-.34.05-1.04,3.38-3.3c.61-.59,1.15-1.12,1.15-1.88,0-.57-.41-1.06-1.08-1.06-.78,0-1.17.58-1.45,1.18l-1.88-.78c.34-.96,1.41-2.23,3.41-2.23,2.16,0,3.46,1.3,3.46,2.81,0,1.26-.8,2.11-1.96,3.26Z"/>
          <path d="m24.18,48.33c0-.89.14-1.67.42-2.32.5-1.13,1.44-1.86,2.8-1.96.1-.01.2-.01.3-.01,1.21,0,2.13.57,2.75,1.54.47.75.74,1.74.83,2.93.01.23.03.46.03.67,0,.89-.13,1.67-.42,2.33-.51,1.13-1.44,1.85-2.8,1.95-.1.01-.2.01-.3.01-1.21,0-2.14-.56-2.75-1.54-.47-.75-.74-1.73-.83-2.9-.01-.27-.03-.48-.03-.7Zm2.74,2.53c.22.55.54.8.98.8h.06c.48-.04.76-.34.89-.94.06-.28.09-.62.09-1.02,0-.31-.01-.65-.04-1.03-.06-.87-.17-1.54-.34-2.02-.2-.54-.5-.79-.93-.79h-.09c-.48.04-.79.33-.92.93-.05.28-.08.62-.08,1.02,0,.31.01.66.04,1.04.06.87.15,1.53.33,2.01Z"/>
          <path d="m33.73,47.23l-1.99-.41c.2-1.18,1.41-2.93,3.82-2.93,1.55,0,3.09,1,3.09,2.74,0,1.03-.62,1.95-1.23,2.85l-1.18,1.72,3.21-.46.27,1.9-6.83.97-.14-1.03,2.7-3.88c.43-.62.79-1.2.79-1.79s-.39-1.12-1.08-1.12c-.76,0-1.17.65-1.41,1.45Z"/>
          <path d="m47.04,50.22c0,1.87-1.76,3.12-3.65,3.12-1.65,0-2.9-.79-3.33-2.07l1.92-.88c.22.75.81,1.13,1.41,1.13.74,0,1.21-.46,1.21-1.2,0-.99-.97-1.38-1.91-1.38-.29,0-.58.03-.89.04l-.1-.15,1.44-2.85-3.16.23-.14-1.91,6.62-.47v.19s-1.95,3.59-1.95,3.59c1.37.17,2.53,1.12,2.53,2.61Z"/>
        </g>
        <g>
          <path d="m14.01,23.46c-1.6,0-3.14-.83-4.26-2.09l1.45-1.4c.64.69,1.62,1.54,2.66,1.54.39,0,.81-.15.81-.62,0-.25-.17-.54-.57-.76-.27-.17-.53-.31-.84-.47l-.56-.32c-1.07-.61-1.84-1.23-1.84-2.48,0-1.64,1.27-2.88,3.17-2.88,1.35,0,2.7.58,3.67,1.72l-1.45,1.45c-.56-.59-1.39-1.29-2.28-1.29-.37,0-.81.22-.81.65,0,.22.15.51.55.74.32.19.64.36.99.56l.62.34c1.03.57,1.87,1.27,1.87,2.43,0,1.67-1.34,2.88-3.17,2.88Z"/>
          <path d="m30.21,13.87l-1.53,9.24-2.43.17-1.9-5.56-1.11,5.76-2.44.17-2.74-8.97,2.42-.15,1.56,5.66,1.08-5.84,2.05-.14,1.82,5.69.84-5.87,2.37-.15Z"/>
          <path d="m30.96,23.74l.41-9.12,2.35.12-.41,9.11-2.35-.1Z"/>
          <path d="m38.4,23.67c-1.83,0-3.11-.88-3.63-1.3l1.16-1.65c.71.52,1.64,1.02,2.53,1.02.78,0,1.08-.36,1.08-.75,0-.33-.22-.61-.7-.78-.31-.11-.6-.2-.92-.31l-.62-.2c-1.31-.45-2.34-.92-2.34-2.6,0-1.46,1.09-2.85,3.4-2.85,1.4,0,2.47.46,3.12,1.03l-1.13,1.69c-.71-.5-1.4-.81-2.11-.81s-1.02.33-1.02.7c0,.28.13.55.66.75.36.14.69.23,1.07.36l.65.2c1.26.42,2.32,1.01,2.32,2.56,0,1.72-1.35,2.94-3.51,2.94Z"/>
          <path d="m46.51,23.46c-1.6,0-3.14-.83-4.26-2.09l1.45-1.4c.64.69,1.62,1.54,2.66,1.54.39,0,.81-.15.81-.62,0-.25-.17-.54-.57-.76-.27-.17-.53-.31-.84-.47l-.56-.32c-1.07-.61-1.84-1.23-1.84-2.48,0-1.64,1.27-2.88,3.17-2.88,1.35,0,2.7.58,3.67,1.72l-1.45,1.45c-.56-.59-1.39-1.29-2.28-1.29-.37,0-.81.22-.81.65,0,.22.15.51.55.74.32.19.64.36.99.56l.62.34c1.03.57,1.87,1.27,1.87,2.43,0,1.67-1.34,2.88-3.17,2.88Z"/>
        </g>
        <g>
          <path d="m13.3,32.96c-.61.31-1.34.48-2.19.48-.14,0-.29,0-.45-.01l-3.58-.25.66-9.11,3.47.25c1.16.09,2.05.42,2.71.87,1.29.87,1.79,2.3,1.79,3.67,0,.13,0,.25-.01.38-.11,1.54-.95,3-2.42,3.73Zm-.08-4.28c0-.93-.27-1.57-.69-1.96-.39-.39-.9-.57-1.45-.61l-1.11-.09-.41,5.52,1.12.09c.06,0,.13.01.19.01.48,0,.94-.14,1.34-.43.52-.41.92-1.12.99-2.18.01-.13.01-.24.01-.36Z"/>
          <path d="m23.9,33.5l-6.43.69-.95-9.07,6.31-.67.2,1.91-3.96.41.18,1.71,3.5-.38.19,1.9-3.5.38.18,1.68,4.07-.43.2,1.9Z"/>
          <path d="m28.4,33.31c-1.6,0-3.14-.83-4.26-2.09l1.45-1.4c.64.69,1.62,1.54,2.66,1.54.39,0,.81-.15.81-.62,0-.25-.17-.54-.57-.76-.27-.17-.53-.31-.84-.47l-.56-.32c-1.07-.61-1.84-1.23-1.84-2.48,0-1.64,1.27-2.88,3.17-2.88,1.35,0,2.7.58,3.67,1.72l-1.45,1.45c-.56-.59-1.39-1.29-2.28-1.29-.37,0-.81.22-.81.65,0,.22.15.51.55.74.32.19.64.36.99.56l.62.34c1.03.57,1.87,1.27,1.87,2.43,0,1.67-1.34,2.88-3.17,2.88Z"/>
          <path d="m33.03,32.89l-.32-9.14,2.35-.08.32,9.12-2.35.09Z"/>
          <path d="m41.22,33.46c-.15,0-.32-.01-.48-.03-2.56-.23-4.28-2.01-4.28-4.58,0-.18.01-.36.03-.53.23-2.67,2.23-4.3,4.58-4.3.14,0,.28,0,.43.01,1.67.15,3.19,1.03,3.7,2.61l-2.12.74c-.23-.64-.88-1.29-1.71-1.36-.05,0-.1-.01-.15-.01-1.04,0-2.05.85-2.19,2.54-.01.14-.03.28-.03.41,0,1.54.89,2.42,2.02,2.51.06,0,.14.01.2.01.85,0,1.49-.54,1.74-1.21l-1.58-.13.14-1.71,4.12.36c0,.09.01.19.01.28,0,.13-.01.27-.03.38-.2,2.29-1.99,4.01-4.43,4.01Z"/>
          <path d="m53.22,33.06l-4.19-5.23.67,5.66-2.18.25-1.09-9.05,2.49-.31,4,5.14-.66-5.55,2.19-.25,1.09,9.05-2.33.28Z"/>
        </g>
        <g>
          <path d="m19.79,36.1l-.05,2.2,3.53.05-.04,1.91-3.53-.05-.05,3.11-2.37-.06.2-9.11,6.26.14-.04,1.91-3.92-.09Z"/>
          <path d="m29.71,41.83l-3.28.23-.56,2.07-2.41.18,2.71-9.34,2.94-.2,4,8.87-2.56.18-.84-1.99Zm-2.81-1.51l2.11-.15-1.26-3.07-.85,3.22Z"/>
          <path d="m33.84,43.81l.41-9.12,2.35.11-.41,9.11-2.35-.1Z"/>
          <path d="m41.26,39.98l-.81.06.22,3.08-2.35.17-.64-9.1,3.25-.24c.76-.05.88-.05.99-.05,2.02,0,3.21,1.32,3.21,2.85,0,1.13-.69,2.15-1.59,2.63l2.71,3.35-2.74.19-2.24-2.94Zm.23-1.82c.85-.06,1.17-.64,1.17-1.26s-.38-1.18-1.15-1.18c-.37,0-1.02.06-1.36.09l.18,2.44,1.16-.09Z"/>
        </g>
      </g>
      <circle class="cls-1" cx="31.38" cy="31.38" r="31"/>
    </g>
  </g>
</svg>